<?xml version="1.0" encoding="UTF-8" standalone="no"?>
<svg
   width="512"
   height="512"
   viewBox="0 0 135.46666 135.46667"
   version="1.1"
   id="svg16"
   xmlns="http://www.w3.org/2000/svg"
   xmlns:svg="http://www.w3.org/2000/svg"
   xmlns:rdf="http://www.w3.org/1999/02/22-rdf-syntax-ns#"
   xmlns:cc="http://creativecommons.org/ns#"
   xmlns:dc="http://purl.org/dc/elements/1.1/">
  <defs
     id="defs10" />
  <metadata
     id="metadata13">
    <rdf:RDF>
      <cc:Work
         rdf:about="">
        <dc:format>image/svg+xml</dc:format>
        <dc:type
           rdf:resource="http://purl.org/dc/dcmitype/StillImage" />
      </cc:Work>
    </rdf:RDF>
  </metadata>
  <g
     id="layer3"
     style="display:none">
    <rect
       style="fill:#ffffff;fill-opacity:1;stroke:#000000;stroke-width:1.05833;stroke-linecap:round;stroke-linejoin:round;stroke-dasharray:none;stroke-opacity:1;paint-order:stroke fill markers"
       id="rect1"
       width="118.53333"
       height="118.53333"
       x="8.4666662"
       y="8.4666662"
       rx="4.2333331"
       ry="4.2333331" />
  </g>
  <g
     id="layer1"
     transform="translate(0.02867747)">
    <path
       style="font-size:33.8667px;line-height:1.25;font-family:Jost;-inkscape-font-specification:Jost;stroke-width:0.264583"
       d="m 32.411368,27.706115 h 7.281341 q -0.304801,1.185334 -0.914401,2.235202 -0.609601,1.049868 -1.524002,1.862668 -0.9144,0.812801 -2.167468,1.253068 -1.253068,0.440267 -2.844803,0.440267 -2.336802,0 -4.199471,-1.083734 -1.862668,-1.083734 -2.946403,-3.014136 -1.083734,-1.964269 -1.083734,-4.538138 0,-2.607736 1.083734,-4.504271 1.117601,-1.930402 2.98027,-2.980269 1.896535,-1.083735 4.165604,-1.083735 2.472269,0 4.199471,1.016001 1.761068,1.016001 2.743202,2.709336 l 3.251203,-2.167469 Q 41.386044,16.191437 39.895909,15.039969 38.405774,13.854635 36.475372,13.211168 34.578837,12.5677 32.242035,12.5677 q -2.675469,0 -4.944538,0.914401 -2.269069,0.880534 -3.962404,2.540003 -1.693335,1.625601 -2.641602,3.89467 -0.914401,2.235202 -0.914401,4.944538 0,2.709336 0.914401,4.978405 0.9144,2.269069 2.573869,3.928537 1.693335,1.659468 3.962403,2.573869 2.269069,0.880534 4.944539,0.880534 2.844802,0 5.046138,-1.016001 2.201335,-1.049867 3.69147,-2.844802 1.490135,-1.794935 2.235202,-4.097871 0.745067,-2.336802 0.677334,-4.944538 H 32.411368 Z m 18.829898,-6.57014 H 47.61753 v 15.578682 h 3.623736 z m 4.639738,3.894671 1.794935,-3.08187 q -0.541867,-0.643467 -1.286934,-0.914401 -0.745068,-0.270934 -1.591735,-0.270934 -1.185335,0 -2.302936,0.880535 -1.083734,0.846667 -1.794935,2.302935 -0.677334,1.422402 -0.677334,3.28507 l 1.219201,0.711201 q 0,-1.117601 0.237067,-1.930402 0.270934,-0.846668 0.846668,-1.320801 0.575734,-0.474134 1.490135,-0.474134 0.677334,0 1.117601,0.2032 0.474133,0.2032 0.948267,0.609601 z m 6.604015,6.841073 q 0,-0.745068 0.338667,-1.253068 0.372534,-0.508001 1.083735,-0.778934 0.7112,-0.3048 1.862668,-0.3048 1.320801,0 2.506136,0.338667 1.185334,0.338667 2.235202,1.083734 V 29.09465 q -0.3048,-0.372534 -1.049868,-0.812801 -0.745067,-0.474134 -1.896535,-0.812801 -1.117601,-0.338667 -2.675469,-0.338667 -2.912536,0 -4.504271,1.354668 -1.591735,1.320801 -1.591735,3.58987 0,1.591735 0.745068,2.709336 0.745067,1.117601 1.998135,1.693335 1.253068,0.575734 2.709336,0.575734 1.354668,0 2.641602,-0.474134 1.320802,-0.508 2.167469,-1.524001 0.880534,-1.016001 0.880534,-2.506136 l -0.541867,-2.032002 q 0,1.185334 -0.541867,2.032002 -0.541867,0.846667 -1.456268,1.320801 -0.880534,0.440267 -1.998135,0.440267 -0.846668,0 -1.524002,-0.270933 -0.643467,-0.270934 -1.016001,-0.812801 -0.372534,-0.575734 -0.372534,-1.354668 z m -1.151467,-6.67174 q 0.372533,-0.237067 1.049867,-0.575734 0.677334,-0.372533 1.625602,-0.6096 0.982134,-0.270934 2.065869,-0.270934 0.7112,0 1.320801,0.135467 0.6096,0.135467 1.049867,0.440267 0.474134,0.3048 0.711201,0.778934 0.237067,0.474134 0.237067,1.219201 v 10.397077 h 3.58987 V 25.606379 q 0,-1.557868 -0.846667,-2.641602 -0.812801,-1.083734 -2.302936,-1.625602 -1.490135,-0.575734 -3.38667,-0.575734 -2.201335,0 -3.860804,0.609601 -1.659468,0.609601 -2.743202,1.253068 z"
       id="text1"
       aria-label="Gra" />
    <path
       style="font-size:33.8667px;line-height:1.25;font-family:Jost;-inkscape-font-specification:Jost;stroke-width:0.264583"
       d="m 62.997194,112.09865 v -9.48268 H 59.23799 v 9.88908 q 0,2.77707 1.388535,4.40267 1.422401,1.6256 4.030137,1.6256 1.625602,0 2.777069,-0.67733 1.185335,-0.7112 1.930402,-2.06587 v 2.40454 h 3.657604 v -15.57869 h -3.657604 v 9.48268 q 0,1.04987 -0.440267,1.8288 -0.440267,0.77894 -1.219201,1.2192 -0.778934,0.44027 -1.794935,0.44027 -1.490135,0 -2.201336,-0.9144 -0.7112,-0.9144 -0.7112,-2.57387 z m 24.722693,-3.38667 v 9.48268 h 3.759203 v -9.92295 q 0,-2.77707 -1.388534,-4.3688 -1.388535,-1.6256 -4.030138,-1.6256 -1.591734,0 -2.777069,0.67733 -1.151468,0.67734 -1.896535,2.06587 v -2.40454 h -3.69147 v 15.57869 h 3.69147 v -9.48268 q 0,-1.04987 0.4064,-1.8288 0.440267,-0.8128 1.219202,-1.2192 0.778934,-0.44027 1.828801,-0.44027 1.456268,0 2.167469,0.88053 0.711201,0.88054 0.711201,2.60774 z m 10.871213,1.69334 q 0,-1.45627 0.643467,-2.57387 0.643467,-1.1176 1.727203,-1.76107 1.1176,-0.64347 2.47227,-0.64347 1.08373,0 2.09973,0.33867 1.016,0.33866 1.79494,0.94827 0.8128,0.57573 1.18533,1.35466 v -4.064 q -0.8128,-0.77893 -2.20133,-1.25307 -1.38854,-0.47413 -3.04801,-0.47413 -2.37066,0 -4.301067,1.04987 -1.896535,1.016 -3.014136,2.8448 -1.117601,1.8288 -1.117601,4.23334 0,2.37066 1.117601,4.23333 1.117601,1.8288 3.014136,2.87867 1.930407,1.016 4.301067,1.016 1.65947,0 3.04801,-0.47413 1.38853,-0.47413 2.20133,-1.28693 v -4.03014 q -0.37253,0.74507 -1.15147,1.35467 -0.77893,0.57573 -1.79493,0.94826 -0.98213,0.33867 -2.1336,0.33867 -1.35467,0 -2.47227,-0.64347 -1.083736,-0.64346 -1.727203,-1.76107 -0.643467,-1.1176 -0.643467,-2.57386 z"
       id="text2"
       aria-label="unc" />
  </g>
  <g
     id="layer2">
    <path
       id="path4"
       style="fill:#000000;fill-opacity:1;stroke:#000000;stroke-width:0.264583px;stroke-linecap:butt;stroke-linejoin:miter;stroke-opacity:1"
       d="m 101.62868,12.699992 c -8.466657,0 -12.700004,4.233332 -16.933337,12.7 0,0 -6.576307,13.634681 -8.466667,16.93333 -1.89036,3.298649 -2.116667,3.251117 -2.116667,3.251117 -0.79037,1.213979 -4.233333,0.982216 -4.233333,0.982216 h -8.466667 v 4.233332 H 71.995343 C 61.941174,70.908323 44.478677,105.83333 42.36201,110.06666 c -4.233334,8.46665 -4.233334,10.58332 -8.524027,10.58333 -4.290693,1e-5 -5.183882,-5.28935 -4.175973,-8.46668 0,-2.11666 4.172701,-0.73617 4.175973,-2.11665 3e-6,-2.33801 -1.895326,-4.23334 -4.233333,-4.23334 -2.338007,0 -4.233336,1.89533 -4.233333,4.23334 7.1e-5,0.0782 0.0023,0.15648 0.0067,0.23461 0.0234,1.22225 0.448316,12.46539 8.459948,12.46539 8.46665,0 12.642624,-4.23332 16.933334,-12.7 2.145355,-4.23334 20.158538,-40.216674 29.69071,-59.266673 H 91.045342 V 46.566655 H 82.578676 L 93.162009,25.399992 c 4.233335,-8.466668 4.233337,-10.583333 8.466671,-10.583334 4.23333,-1e-6 4.23333,8.466665 1.81177,7.121013 -1.13233,0.789664 -1.8085,2.081841 -1.81177,3.462321 0,2.338005 1.89533,4.233332 4.23333,4.233333 2.33801,5e-6 4.23334,-1.895324 4.23334,-4.233333 -2.4e-4,-0.07826 -0.003,-0.156489 -0.007,-0.234611 -0.0234,-1.222255 -0.44804,-12.465389 -8.45967,-12.465389 z" />
  </g>
</svg>
